# xmcd CD database file
#
# Track frame offsets:
#	150
#	14027
#	33377
#	50550
#	64217
#	76705
#	94702
#	110532
#	126292
#	138562
#	150952
#	163112
#	175915
#	190187
#	209690
#	222895
#	235100
#	250382
#	266717
#	283552
#	293060
#	310967
#
# Disc length: 4361 seconds
#
# Revision: 0
# Processed by: cddbd v1.5.2PL0 Copyright (c) Steve Scherf et al.
# Submitted via: CDex 1.70beta2
#
DISCID=46110716
DTITLE=Jones Country - Jones Country JCY-003
DYEAR=0000
DGENRE=Country
TTITLE0=Mark Chesnutt/Let It Rain
TTITLE1=Billy Ray Cyrus/It's All The Same To Me
TTITLE2=Linda Davis/I Wanna Remember This (Single)
TTITLE3=Joe Diffie/Whole Lotta Gone
TTITLE4=Joe Diffie/Texas Size Heartache
TTITLE5=Keith Harling/Papa Bear
TTITLE6=Wade Hays/How Do You Sleep At Night
TTITLE7=Rex Allen Sr and Jr, Roy Rogers/Last Of The Silver Screen Cowboys
TTITLE8=Rex Allen Jr/Two Less Lonely People
TTITLE9=Bill Anderson/My Life
TTITLE10=John Anderson/Wild And Blue
TTITLE11=Lynn Anderson/How Can I Unlove You
TTITLE12=Eddy Arnold/Tennessee Stud
TTITLE13=Moe Bandy/Americana
TTITLE14=Moe Bandy/Soft Lights And Hard Country Music
TTITLE15=Bobby Bare/Streets Of Baltimore
TTITLE16=Bellamy Brothers/Dancin' Cowboys
TTITLE17=Bellamy Brothers/Forget About Me
TTITLE18=Bellamy Brothers/Sugar Daddy
TTITLE19=Clint Black and Roy Rogers/Hold On Partner
TTITLE20=T Graham Brown/Don't Go To Strangers
TTITLE21=Ed Bruce/After All
EXTD=YEAR: 0000
EXTT0=
EXTT1=
EXTT2=
EXTT3=
EXTT4=
EXTT5=
EXTT6=
EXTT7=
EXTT8=
EXTT9=
EXTT10=
EXTT11=
EXTT12=
EXTT13=
EXTT14=
EXTT15=
EXTT16=
EXTT17=
EXTT18=
EXTT19=
EXTT20=
EXTT21=
PLAYORDER=
